HIERARCHY
ROOT SpineBase
{
  OFFSET 0.000000 0.000000 0.000000
  CHANNELS 6 Xposition Yposition Zposition Zrotation Xrotation Yrotation
  JOINT SpineMid
  {
    OFFSET 0.000000 28.460827 0.000000
    CHANNELS 3 Zrotation Xrotation Yrotation
    JOINT SpineShoulder
    {
      OFFSET -0.023363 21.139898 -0.855420
      CHANNELS 3 Zrotation Xrotation Yrotation
      JOINT Neck
      {
        OFFSET -0.030902 6.989683 -0.594534
        CHANNELS 3 Zrotation Xrotation Yrotation
        JOINT Head
        {
          OFFSET -2.714796 12.056989 1.171568
          CHANNELS 3 Zrotation Xrotation Yrotation
          End Site
          {
            OFFSET 0 0 0
          }
        }
      }
      JOINT ShoulderLeft
      {
        OFFSET -11.861855 -5.276669 8.012124
        CHANNELS 3 Zrotation Xrotation Yrotation
        JOINT ElbowLeft
        {
          OFFSET -4.415967 -29.552899 4.029122
          CHANNELS 3 Zrotation Xrotation Yrotation
          JOINT WristLeft
          {
            OFFSET 2.700323 -24.720849 4.113905
            CHANNELS 3 Zrotation Xrotation Yrotation
            JOINT HandLeft
            {
              OFFSET -2.405446 -3.680816 -6.551826
              CHANNELS 3 Zrotation Xrotation Yrotation
              JOINT HandTipLeft
              {
                OFFSET -0.161013 -1.740312 -1.034562
                CHANNELS 3 Zrotation Xrotation Yrotation
                End Site
                {
                  OFFSET 0 0 0
                }
              }
              JOINT ThumbLeft
              {
                OFFSET 1.170067 0.007030 -3.376182
                CHANNELS 3 Zrotation Xrotation Yrotation
                End Site
                {
                  OFFSET 0 0 0
                }
              }
            }
          }
        }
      }
      JOINT ShoulderRight
      {
        OFFSET 6.357036 -5.145057 -12.603063
        CHANNELS 3 Zrotation Xrotation Yrotation
        JOINT ElbowRight
        {
          OFFSET 5.379706 -24.076380 -3.091491
          CHANNELS 3 Zrotation Xrotation Yrotation
          JOINT WristRight
          {
            OFFSET -5.212955 -21.465706 -3.456737
            CHANNELS 3 Zrotation Xrotation Yrotation
            JOINT HandRight
            {
              OFFSET -1.066754 -3.141085 -0.101864
              CHANNELS 3 Zrotation Xrotation Yrotation
              JOINT HandTipRight
              {
                OFFSET -1.244465 -6.594578 0.352123
                CHANNELS 3 Zrotation Xrotation Yrotation
                End Site
                {
                  OFFSET 0 0 0
                }
              }
              JOINT ThumbRight
              {
                OFFSET -2.903973 1.550008 0.388599
                CHANNELS 3 Zrotation Xrotation Yrotation
                End Site
                {
                  OFFSET 0 0 0
                }
              }
            }
          }
        }
      }
    }
  }
  JOINT HipLeft
  {
    OFFSET -4.752499 -0.388656 1.098742
    CHANNELS 3 Zrotation Xrotation Yrotation
    JOINT KneeLeft
    {
      OFFSET 1.539033 -27.072019 8.449555
      CHANNELS 3 Zrotation Xrotation Yrotation
      JOINT AnkleLeft
      {
        OFFSET 6.641617 -31.274820 7.384817
        CHANNELS 3 Zrotation Xrotation Yrotation
        JOINT FootLeft
        {
          OFFSET -7.174571 -4.200804 -9.397958
          CHANNELS 3 Zrotation Xrotation Yrotation
          End Site
          {
            OFFSET 0 0 0
          }
        }
      }
    }
  }
  JOINT HipRight
  {
    OFFSET 3.915529 1.592481 -7.971329
    CHANNELS 3 Zrotation Xrotation Yrotation
    JOINT KneeRight
    {
      OFFSET 6.326136 -28.260851 4.197495
      CHANNELS 3 Zrotation Xrotation Yrotation
      JOINT AnkleRight
      {
        OFFSET 7.757623 -33.974025 9.679397
        CHANNELS 3 Zrotation Xrotation Yrotation
        JOINT FootRight
        {
          OFFSET -2.875265 -5.255122 -1.612548
          CHANNELS 3 Zrotation Xrotation Yrotation
          End Site
          {
            OFFSET 0 0 0
          }
        }
      }
    }
  }
}
MOTION
Frames: 6
Frame Time: 0.033333
35.988236 69.556993 352.138299 -0.000000 0.000000 46.298411 0.000000 0.000000 -46.298411 -0.000000 0.000000 0.000000 -0.000000 0.000000 0.000000 0.000000 0.000000 0.000000 -0.000000 0.000000 0.000000 -0.000000 0.000000 0.000000 -0.000000 0.000000 0.000000 -0.000000 0.000000 0.000000 0.000000 0.000000 0.000000 0.000000 0.000000 0.000000 -0.000000 0.000000 0.000000 -0.000000 0.000000 0.000000 -0.000000 0.000000 0.000000 -0.000000 0.000000 0.000000 0.000000 0.000000 0.000000 0.000000 0.000000 0.000000 0.000000 0.000000 -46.298411 -0.000000 0.000000 0.000000 -0.000000 0.000000 0.000000 0.000000 0.000000 0.000000 0.000000 0.000000 -46.298411 -0.000000 0.000000 0.000000 -0.000000 0.000000 0.000000 0.000000 0.000000 0.000000
35.576436 69.449002 352.211378 -0.332343 -0.295699 45.967090 0.443591 -0.033406 -45.967819 -0.000000 0.000000 0.000000 -0.000000 0.000000 0.000000 0.000000 0.000000 0.000000 1.965209 2.473685 -0.144967 9.584658 16.428268 2.703121 -6.416263 -29.220619 -10.408224 3.863768 14.714782 -2.601136 0.000000 0.000000 0.000000 0.000000 0.000000 0.000000 -0.000000 0.000000 0.000000 -0.000000 0.000000 0.000000 6.348731 -2.632628 0.850809 -6.316047 2.710363 -0.555209 0.000000 0.000000 0.000000 0.000000 0.000000 0.000000 0.443591 -0.033406 -45.967819 -0.000000 0.000000 0.000000 -0.000000 0.000000 0.000000 0.000000 0.000000 0.000000 1.261079 -0.250523 -45.760606 -0.725879 -0.434203 -0.207938 -10.490849 18.303358 -4.705599 0.000000 0.000000 0.000000
35.198235 69.354484 352.280914 -0.629096 -0.568148 45.641850 0.846034 -0.052599 -45.644581 -0.000000 0.000000 0.000000 -1.285537 -0.053214 0.112631 0.000000 0.000000 0.000000 3.534038 4.433720 -0.320895 19.393747 32.612414 2.313681 -19.334438 -55.882278 -24.045710 -1.191769 25.414992 0.435503 0.000000 0.000000 0.000000 0.000000 0.000000 0.000000 -0.000000 0.000000 0.000000 1.265449 -0.695668 -0.027262 9.982358 -3.690467 1.515738 -10.692846 6.050462 -1.020404 0.000000 0.000000 0.000000 0.000000 0.000000 0.000000 1.759005 -0.710194 -45.281568 -1.109631 -0.186079 -0.358737 -0.000000 0.000000 0.000000 0.000000 0.000000 0.000000 2.418435 -0.449295 -45.243323 -1.388841 -0.837265 -0.404519 -15.754062 27.952493 -5.891841 0.000000 0.000000 0.000000
34.853633 69.273439 352.346906 -0.890470 -0.817500 45.326506 1.207378 -0.058542 -45.332242 -0.000000 0.000000 0.000000 -1.770479 -0.011677 0.169833 0.000000 0.000000 0.000000 4.635364 5.798293 -0.475881 28.084115 44.072850 -0.511840 -45.365252 -73.103792 -50.160534 -8.011753 32.185868 5.690211 0.000000 0.000000 0.000000 0.000000 0.000000 0.000000 -0.666791 -0.629830 -0.058897 2.386916 -0.218803 -0.025364 12.838299 -4.385865 1.929857 -14.017749 8.307762 -1.234785 0.000000 0.000000 0.000000 0.000000 0.000000 0.000000 2.568796 -0.964778 -44.801311 -1.604504 -0.316430 -0.523203 -0.000000 0.000000 0.000000 0.000000 0.000000 0.000000 3.473130 -0.599766 -44.751189 -1.401198 -1.973401 -0.575510 -19.454678 33.889232 -5.848360 0.000000 0.000000 0.000000
34.542630 69.205867 352.409354 -1.116656 -1.043907 45.024634 1.527677 -0.052229 -45.034111 -0.000000 0.000000 0.000000 -2.151677 0.075113 0.228375 0.000000 0.000000 0.000000 5.218267 6.515706 -0.568248 35.352033 51.091221 -4.216609 -91.369152 -78.578246 -96.687165 -14.019304 35.436188 11.089740 0.000000 0.000000 0.000000 0.000000 0.000000 0.000000 -0.608245 -0.703680 -0.083032 2.663957 -0.169850 -0.052802 14.076048 -4.254648 1.931919 -15.871372 9.968018 -1.405100 0.000000 0.000000 0.000000 0.000000 0.000000 0.000000 3.329031 -1.153597 -44.346151 -2.057902 -0.471764 -0.677475 -0.000000 0.000000 0.000000 0.000000 0.000000 0.000000 4.425975 -0.705300 -44.288361 -1.788625 -2.535914 -0.740906 -21.414102 37.018505 -5.724541 0.000000 0.000000 0.000000
34.265226 69.151767 352.468259 -1.307825 -1.247515 44.739496 0.979089 -0.125156 -44.776265 0.523983 0.647357 0.018962 -2.430102 0.207112 0.288520 0.000000 0.000000 0.000000 5.255571 6.560887 -0.574280 41.460954 55.301161 -7.947601 -119.434217 -77.187990 -125.860675 -18.171851 36.150263 15.499350 0.000000 0.000000 0.000000 0.000000 0.000000 0.000000 -0.410084 -0.710725 -0.108870 2.682267 -0.058855 -0.088154 13.413069 -3.119496 1.403143 -16.007908 10.886283 -1.562822 0.000000 0.000000 0.000000 0.000000 0.000000 0.000000 4.037533 -1.278038 -43.920325 -2.468931 -0.652002 -0.821357 -0.000000 0.000000 0.000000 0.000000 0.000000 0.000000 5.277523 -0.769083 -43.858497 -2.137901 -3.051412 -0.893487 -22.571604 38.781856 -5.570280 0.000000 0.000000 0.000000
